<svg xmlns="http://www.w3.org/2000/svg" viewBox="0 0 1200 720">
  <rect width="1200" height="720" fill="#070b16"/>
  <rect x="70" y="70" width="1060" height="580" rx="28" fill="#0d1525" stroke="#253655"/>
  <text x="110" y="160" fill="#dfa030" font-family="Georgia, serif" font-size="56">Akcia = podiel vo firme</text>
  <g transform="translate(100 240)">
    <rect x="0" y="0" width="420" height="300" rx="24" fill="#152038" stroke="#c8891a"/>
    <text x="36" y="66" fill="#f0e8d5" font-family="Arial, sans-serif" font-size="34">Firma</text>
    <rect x="40" y="110" width="340" height="34" rx="8" fill="#15a06a" opacity=".25"/>
    <rect x="40" y="168" width="280" height="34" rx="8" fill="#6ab0e8" opacity=".25"/>
    <rect x="40" y="226" width="220" height="34" rx="8" fill="#dfa030" opacity=".25"/>
  </g>
  <g transform="translate(660 265)">
    <circle cx="130" cy="130" r="118" fill="#152038" stroke="#dfa030" stroke-width="4"/>
    <path d="M130 12A118 118 0 0 1 242 100L130 130Z" fill="#15a06a"/>
    <path d="M242 100A118 118 0 0 1 176 239L130 130Z" fill="#6ab0e8"/>
    <path d="M176 239A118 118 0 0 1 23 173L130 130Z" fill="#c23b3b"/>
    <path d="M23 173A118 118 0 0 1 130 12L130 130Z" fill="#dfa030"/>
    <text x="88" y="138" fill="#f0e8d5" font-family="Arial, sans-serif" font-size="28">Tvoj</text>
  </g>
</svg>
